<?xml version="1.0" encoding="utf-8"?>
<!-- Generator: Adobe Illustrator 26.3.1, SVG Export Plug-In . SVG Version: 6.00 Build 0)  -->
<svg version="1.1" id="Layer_1" xmlns="http://www.w3.org/2000/svg" xmlns:xlink="http://www.w3.org/1999/xlink" x="0px" y="0px"
	 viewBox="0 0 612 792" style="enable-background:new 0 0 612 792;" xml:space="preserve">
<style type="text/css">
	.st0{fill:#FFFFFF;}
	.st1{fill:none;stroke:#000000;stroke-width:0.5;stroke-miterlimit:2;}
	.st2{fill:#F8F8F8;stroke:#000000;stroke-width:0.5;stroke-miterlimit:2;}
	.st3{font-family:'Times-Roman';}
	.st4{font-size:8px;}
	.st5{fill:#EDD5D5;stroke:#B20100;stroke-width:0.5;stroke-miterlimit:2;}
	.st6{font-size:7.5px;}
	.st7{fill:#EDD8D5;stroke:#B21300;stroke-width:0.5;stroke-miterlimit:2;}
	.st8{font-size:12px;}
	.st9{fill:none;stroke:#B21C00;stroke-width:1.5;stroke-miterlimit:2;}
	.st10{fill:#B21C00;stroke:#B21C00;stroke-width:1.5;stroke-miterlimit:2;}
	.st11{font-size:7px;}
	.st12{fill:#EDD7D5;stroke:#B20D00;stroke-width:0.5;stroke-miterlimit:2;}
	.st13{font-size:5.5px;}
	.st14{fill:none;stroke:#B20D00;stroke-width:2;stroke-miterlimit:2;}
	.st15{fill:#B20D00;stroke:#B20D00;stroke-width:2;stroke-miterlimit:2;}
	.st16{fill:#EDE5DF;stroke:#B27C4A;stroke-width:0.5;stroke-miterlimit:2;}
	.st17{font-size:8.5px;}
	.st18{fill:none;stroke:#B28558;stroke-width:0.5;stroke-miterlimit:2;}
	.st19{fill:#B28558;stroke:#B28558;stroke-width:0.5;stroke-miterlimit:2;}
	.st20{fill:#EDEBE8;stroke:#B2A38C;stroke-width:0.5;stroke-miterlimit:2;}
	.st21{font-size:6.5px;}
	.st22{fill:none;stroke:#B2AA9B;stroke-width:0.5;stroke-miterlimit:2;}
	.st23{fill:#B2AA9B;stroke:#B2AA9B;stroke-width:0.5;stroke-miterlimit:2;}
	.st24{fill:#EDEBE7;stroke:#B2A28A;stroke-width:0.5;stroke-miterlimit:2;}
	.st25{fill:none;stroke:#B2A58F;stroke-width:0.5;stroke-miterlimit:2;}
	.st26{fill:#B2A58F;stroke:#B2A58F;stroke-width:0.5;stroke-miterlimit:2;}
	.st27{fill:#EDECEA;stroke:#B2AB9D;stroke-width:0.5;stroke-miterlimit:2;}
	.st28{fill:none;stroke:#B2AB9D;stroke-width:0.5;stroke-miterlimit:2;}
	.st29{fill:#B2AB9D;stroke:#B2AB9D;stroke-width:0.5;stroke-miterlimit:2;}
	.st30{fill:#EDECEB;stroke:#B2AFA7;stroke-width:0.5;stroke-miterlimit:2;}
	.st31{fill:none;stroke:#B2AFA7;stroke-width:0.5;stroke-miterlimit:2;}
	.st32{fill:#B2AFA7;stroke:#B2AFA7;stroke-width:0.5;stroke-miterlimit:2;}
	.st33{fill:#EDDDD5;stroke:#B23A00;stroke-width:0.5;stroke-miterlimit:2;}
	.st34{font-size:11px;}
	.st35{fill:none;stroke:#B23C00;stroke-miterlimit:2;}
	.st36{fill:#B23C00;stroke:#B23C00;stroke-miterlimit:2;}
	.st37{fill:#EDECEA;stroke:#B2ACA0;stroke-width:0.5;stroke-miterlimit:2;}
	.st38{font-size:6px;}
	.st39{fill:none;stroke:#B2ADA1;stroke-width:0.5;stroke-miterlimit:2;}
	.st40{fill:#B2ADA1;stroke:#B2ADA1;stroke-width:0.5;stroke-miterlimit:2;}
	.st41{fill:#EDD5D5;stroke:#B20000;stroke-width:0.5;stroke-miterlimit:2;}
	.st42{font-size:4.5px;}
	.st43{fill:none;stroke:#B2AEA4;stroke-width:0.5;stroke-miterlimit:2;}
	.st44{fill:#B2AEA4;stroke:#B2AEA4;stroke-width:0.5;stroke-miterlimit:2;}
	.st45{fill:none;stroke:#B20100;stroke-width:2.5;stroke-miterlimit:2;}
	.st46{fill:#B20100;stroke:#B20100;stroke-width:2.5;stroke-miterlimit:2;}
	.st47{font-size:4px;}
	.st48{fill:none;stroke:#B20000;stroke-width:2.5;stroke-miterlimit:2;}
	.st49{fill:#B20000;stroke:#B20000;stroke-width:2.5;stroke-miterlimit:2;}
	.st50{fill:none;stroke:#B2936E;stroke-width:0.5;stroke-miterlimit:2;}
	.st51{fill:#B2936E;stroke:#B2936E;stroke-width:0.5;stroke-miterlimit:2;}
	.st52{fill:none;stroke:#B20E00;stroke-width:2;stroke-miterlimit:2;}
	.st53{fill:#B20E00;stroke:#B20E00;stroke-width:2;stroke-miterlimit:2;}
	.st54{fill:none;stroke:#B2B2B0;stroke-width:0.5;stroke-miterlimit:2;}
	.st55{fill:#B2B2B0;stroke:#B2B2B0;stroke-width:0.5;stroke-miterlimit:2;}
	.st56{fill:#EDECEC;stroke:#B2B0AA;stroke-width:0.5;stroke-miterlimit:2;}
	.st57{fill:none;stroke:#B2AEA3;stroke-width:0.5;stroke-miterlimit:2;}
	.st58{fill:#B2AEA3;stroke:#B2AEA3;stroke-width:0.5;stroke-miterlimit:2;}
	.st59{fill:none;stroke:#B2B1AF;stroke-width:0.5;stroke-miterlimit:2;}
	.st60{fill:#B2B1AF;stroke:#B2B1AF;stroke-width:0.5;stroke-miterlimit:2;}
	.st61{fill:none;stroke:#B2B1AC;stroke-width:0.5;stroke-miterlimit:2;}
	.st62{fill:#B2B1AC;stroke:#B2B1AC;stroke-width:0.5;stroke-miterlimit:2;}
	.st63{fill:none;stroke:#B2AEA5;stroke-width:0.5;stroke-miterlimit:2;}
	.st64{fill:#B2AEA5;stroke:#B2AEA5;stroke-width:0.5;stroke-miterlimit:2;}
	.st65{fill:none;stroke:#B2B0AA;stroke-width:0.5;stroke-miterlimit:2;}
	.st66{fill:#B2B0AA;stroke:#B2B0AA;stroke-width:0.5;stroke-miterlimit:2;}
	.st67{fill:none;}
</style>
<script  type="text/ecmascript">
	<![CDATA[
/**
 *  SVGPan library 1.2.2
 * ======================
 *
 * Given an unique existing element with id "viewport" (or when missing, the
 * first g-element), including the library into any SVG adds the following
 * capabilities:
 *
 *  - Mouse panning
 *  - Mouse zooming (using the wheel)
 *  - Object dragging
 *
 * You can configure the behaviour of the pan/zoom/drag with the variables
 * listed in the CONFIGURATION section of this file.
 *
 * Known issues:
 *
 *  - Zooming (while panning) on Safari has still some issues
 *
 * Releases:
 *
 * 1.2.2, Tue Aug 30 17:21:56 CEST 2011, Andrea Leofreddi
 *	- Fixed viewBox on root tag (#7)
 *	- Improved zoom speed (#2)
 *
 * 1.2.1, Mon Jul  4 00:33:18 CEST 2011, Andrea Leofreddi
 *	- Fixed a regression with mouse wheel (now working on Firefox 5)
 *	- Working with viewBox attribute (#4)
 *	- Added "use strict;" and fixed resulting warnings (#5)
 *	- Added configuration variables, dragging is disabled by default (#3)
 *
 * 1.2, Sat Mar 20 08:42:50 GMT 2010, Zeng Xiaohui
 *	Fixed a bug with browser mouse handler interaction
 *
 * 1.1, Wed Feb  3 17:39:33 GMT 2010, Zeng Xiaohui
 *	Updated the zoom code to support the mouse wheel on Safari/Chrome
 *
 * 1.0, Andrea Leofreddi
 *	First release
 *
 * This code is licensed under the following BSD license:
 *
 * Copyright 2009-2017 Andrea Leofreddi <a.leofreddi@vleo.net>. All rights reserved.
 *
 * Redistribution and use in source and binary forms, with or without modification, are
 * permitted provided that the following conditions are met:
 *
 *    1. Redistributions of source code must retain the above copyright
 *       notice, this list of conditions and the following disclaimer.
 *    2. Redistributions in binary form must reproduce the above copyright
 *       notice, this list of conditions and the following disclaimer in the
 *       documentation and/or other materials provided with the distribution.
 *    3. Neither the name of the copyright holder nor the names of its
 *       contributors may be used to endorse or promote products derived from
 *       this software without specific prior written permission.
 *
 * THIS SOFTWARE IS PROVIDED BY COPYRIGHT HOLDERS AND CONTRIBUTORS ''AS IS'' AND ANY EXPRESS
 * OR IMPLIED WARRANTIES, INCLUDING, BUT NOT LIMITED TO, THE IMPLIED WARRANTIES OF MERCHANTABILITY
 * AND FITNESS FOR A PARTICULAR PURPOSE ARE DISCLAIMED. IN NO EVENT SHALL COPYRIGHT HOLDERS OR
 * CONTRIBUTORS BE LIABLE FOR ANY DIRECT, INDIRECT, INCIDENTAL, SPECIAL, EXEMPLARY, OR
 * CONSEQUENTIAL DAMAGES (INCLUDING, BUT NOT LIMITED TO, PROCUREMENT OF SUBSTITUTE GOODS OR
 * SERVICES; LOSS OF USE, DATA, OR PROFITS; OR BUSINESS INTERRUPTION) HOWEVER CAUSED AND ON
 * ANY THEORY OF LIABILITY, WHETHER IN CONTRACT, STRICT LIABILITY, OR TORT (INCLUDING
 * NEGLIGENCE OR OTHERWISE) ARISING IN ANY WAY OUT OF THE USE OF THIS SOFTWARE, EVEN IF
 * ADVISED OF THE POSSIBILITY OF SUCH DAMAGE.
 *
 * The views and conclusions contained in the software and documentation are those of the
 * authors and should not be interpreted as representing official policies, either expressed
 * or implied, of Andrea Leofreddi.
 */

"use strict";

/// CONFIGURATION
/// ====>

var enablePan = 1; // 1 or 0: enable or disable panning (default enabled)
var enableZoom = 1; // 1 or 0: enable or disable zooming (default enabled)
var enableDrag = 0; // 1 or 0: enable or disable dragging (default disabled)
var zoomScale = 0.2; // Zoom sensitivity

/// <====
/// END OF CONFIGURATION

var root = document.documentElement;

var state = 'none', svgRoot = null, stateTarget, stateOrigin, stateTf;

setupHandlers(root);

/**
 * Register handlers
 */
function setupHandlers(root){
	setAttributes(root, {
		"onmouseup" : "handleMouseUp(evt)",
		"onmousedown" : "handleMouseDown(evt)",
		"onmousemove" : "handleMouseMove(evt)",
		//"onmouseout" : "handleMouseUp(evt)", // Decomment this to stop the pan functionality when dragging out of the SVG element
	});

	if(navigator.userAgent.toLowerCase().indexOf('webkit') >= 0)
		window.addEventListener('mousewheel', handleMouseWheel, false); // Chrome/Safari
	else
		window.addEventListener('DOMMouseScroll', handleMouseWheel, false); // Others
}

/**
 * Retrieves the root element for SVG manipulation. The element is then cached into the svgRoot global variable.
 */
function getRoot(root) {
	if(svgRoot == null) {
		var r = root.getElementById("viewport") ? root.getElementById("viewport") : root.documentElement, t = r;

		while(t != root) {
			if(t.getAttribute("viewBox")) {
				setCTM(r, t.getCTM());

				t.removeAttribute("viewBox");
			}

			t = t.parentNode;
		}

		svgRoot = r;
	}

	return svgRoot;
}

/**
 * Instance an SVGPoint object with given event coordinates.
 */
function getEventPoint(evt) {
	var p = root.createSVGPoint();

	p.x = evt.clientX;
	p.y = evt.clientY;

	return p;
}

/**
 * Sets the current transform matrix of an element.
 */
function setCTM(element, matrix) {
	var s = "matrix(" + matrix.a + "," + matrix.b + "," + matrix.c + "," + matrix.d + "," + matrix.e + "," + matrix.f + ")";

	element.setAttribute("transform", s);
}

/**
 * Dumps a matrix to a string (useful for debug).
 */
function dumpMatrix(matrix) {
	var s = "[ " + matrix.a + ", " + matrix.c + ", " + matrix.e + "\n  " + matrix.b + ", " + matrix.d + ", " + matrix.f + "\n  0, 0, 1 ]";

	return s;
}

/**
 * Sets attributes of an element.
 */
function setAttributes(element, attributes){
	for (var i in attributes)
		element.setAttributeNS(null, i, attributes[i]);
}

/**
 * Handle mouse wheel event.
 */
function handleMouseWheel(evt) {
	if(!enableZoom)
		return;

	if(evt.preventDefault)
		evt.preventDefault();

	evt.returnValue = false;

	var svgDoc = evt.target.ownerDocument;

	var delta;

	if(evt.wheelDelta)
		delta = evt.wheelDelta / 360; // Chrome/Safari
	else
		delta = evt.detail / -9; // Mozilla

	var z = Math.pow(1 + zoomScale, delta);

	var g = getRoot(svgDoc);
	
	var p = getEventPoint(evt);

	p = p.matrixTransform(g.getCTM().inverse());

	// Compute new scale matrix in current mouse position
	var k = root.createSVGMatrix().translate(p.x, p.y).scale(z).translate(-p.x, -p.y);

        setCTM(g, g.getCTM().multiply(k));

	if(typeof(stateTf) == "undefined")
		stateTf = g.getCTM().inverse();

	stateTf = stateTf.multiply(k.inverse());
}

/**
 * Handle mouse move event.
 */
function handleMouseMove(evt) {
	if(evt.preventDefault)
		evt.preventDefault();

	evt.returnValue = false;

	var svgDoc = evt.target.ownerDocument;

	var g = getRoot(svgDoc);

	if(state == 'pan' && enablePan) {
		// Pan mode
		var p = getEventPoint(evt).matrixTransform(stateTf);

		setCTM(g, stateTf.inverse().translate(p.x - stateOrigin.x, p.y - stateOrigin.y));
	} else if(state == 'drag' && enableDrag) {
		// Drag mode
		var p = getEventPoint(evt).matrixTransform(g.getCTM().inverse());

		setCTM(stateTarget, root.createSVGMatrix().translate(p.x - stateOrigin.x, p.y - stateOrigin.y).multiply(g.getCTM().inverse()).multiply(stateTarget.getCTM()));

		stateOrigin = p;
	}
}

/**
 * Handle click event.
 */
function handleMouseDown(evt) {
	if(evt.preventDefault)
		evt.preventDefault();

	evt.returnValue = false;

	var svgDoc = evt.target.ownerDocument;

	var g = getRoot(svgDoc);

	if(
		evt.target.tagName == "svg"
		|| !enableDrag // Pan anyway when drag is disabled and the user clicked on an element
	) {
		// Pan mode
		state = 'pan';

		stateTf = g.getCTM().inverse();

		stateOrigin = getEventPoint(evt).matrixTransform(stateTf);
	} else {
		// Drag mode
		state = 'drag';

		stateTarget = evt.target;

		stateTf = g.getCTM().inverse();

		stateOrigin = getEventPoint(evt).matrixTransform(stateTf);
	}
}

/**
 * Handle mouse button release event.
 */
function handleMouseUp(evt) {
	if(evt.preventDefault)
		evt.preventDefault();

	evt.returnValue = false;

	var svgDoc = evt.target.ownerDocument;

	if(state == 'pan' || state == 'drag') {
		// Quit pan mode
		state = '';
	}
}

		]]>
</script>
<g id="viewport" transform="scale(0.5,0.5) translate(0,0)">
	<g id="graph0" transform="scale(1 1) rotate(0) translate(4 984.5)">
		<polygon class="st0" points="96.9,65.2 96.9,-923.3 1082,-923.3 1082,65.2 		"/>
		<g id="clust1">
			<polygon class="st1" points="304.3,-755.8 304.3,-911.3 730.3,-911.3 730.3,-755.8 			"/>
		</g>
		<g id="node1">
			<polygon class="st2" points="730.4,-900.5 319.9,-900.5 319.9,-761 730.4,-761 			"/>
			<text transform="matrix(2 0 0 2 327.8789 -881.2959)" class="st3 st4">Type: cpu</text>
			<text transform="matrix(2 0 0 2 327.8789 -862.5459)" class="st3 st4">Time: Feb 27, 2024 at 8:17pm (EST)</text>
			<text transform="matrix(2 0 0 2 327.8789 -843.7959)" class="st3 st4">Duration: 34.55s, Total samples = 29.11s (84.25%)</text>
			<text transform="matrix(2 0 0 2 327.8789 -825.0459)" class="st3 st4">Showing nodes accounting for 28.82s, 99.00% of 29.11s total</text>
			<text transform="matrix(2 0 0 2 327.8789 -806.2959)" class="st3 st4">Dropped 14 nodes (cum &lt;= 0.15s)</text>
			<text transform="matrix(2 0 0 2 327.8789 -768.5459)" class="st3 st4">See https://git.io/JfYMW for how to read the graph</text>
		</g>
		<g id="node1_00000158005148118502429070000017199454316944919463_">
			<g id="a_node1">
				<a>
					<polygon class="st5" points="455,-711.3 311.5,-711.3 311.5,-634.3 455,-634.3 					"/>
					<text transform="matrix(2 0 0 2 372.0386 -693.0322)" class="st3 st6">pkg</text>
					<text transform="matrix(2 0 0 2 320.5865 -675.7822)" class="st3 st6">moveWatchedLiteral</text>
					<text transform="matrix(2 0 0 2 341.0025 -658.5322)" class="st3 st6">2.18s (7.49%)</text>
					<text transform="matrix(2 0 0 2 325.3795 -641.2822)" class="st3 st6">of 28.35s (97.39%)</text>
				</a>
			</g>
		</g>
		<g id="node2">
			<g id="a_node2">
				<a>
					<polygon class="st7" points="378.3,-191.8 176.3,-191.8 176.3,-75.8 378.3,-75.8 					"/>
					<text transform="matrix(2 0 0 2 239.9644 -164.9824)" class="st3 st8">runtime</text>
					<text transform="matrix(2 0 0 2 184.6578 -137.9824)" class="st3 st8">mapaccess1_fast64</text>
					<text transform="matrix(2 0 0 2 198.0699 -110.9814)" class="st3 st8">11.71s (40.23%)</text>
					<text transform="matrix(2 0 0 2 184.6343 -83.9814)" class="st3 st8">of 19.62s (67.40%)</text>
				</a>
			</g>
		</g>
		<g id="edge8">
			<g id="a_edge8">
				<a>
					<path class="st9" d="M324.7-633.9c-24.5,20.8-47.4,49-47.4,82.1c0,0,0,0,0,249c0,31.7,0,66.8,0,96.6"/>
					<polygon class="st10" points="280.8,-206.5 277.3,-196.5 273.8,-206.5 					"/>
				</a>
			</g>
			<g id="a_edge8-label">
				<a>
					<text transform="matrix(2 0 0 2 278.6841 -428.2324)" class="st3 st11">16.18s</text>
				</a>
			</g>
		</g>
		<g id="node6">
			<g id="a_node6">
				<a>
					<polygon class="st12" points="511.3,-581.8 411.3,-581.8 411.3,-519.8 511.3,-519.8 					"/>
					<text transform="matrix(2 0 0 2 453.0386 -567.332)" class="st3 st13">pkg</text>
					<text transform="matrix(2 0 0 2 420.0523 -553.832)" class="st3 st13">resolveImplication</text>
					<text transform="matrix(2 0 0 2 430.2789 -540.332)" class="st3 st13">0.22s (0.76%)</text>
					<text transform="matrix(2 0 0 2 418.8218 -526.832)" class="st3 st13">of 22.31s (76.64%)</text>
				</a>
			</g>
		</g>
		<g id="edge6">
			<g id="a_edge6">
				<a>
					<path class="st14" d="M408-633.8c8,12.3,16.9,26,25.2,38.7"/>
					<polygon class="st15" points="435.9,-597.3 438.4,-587 430,-593.5 					"/>
				</a>
			</g>
			<g id="a_edge6-label">
				<a>
					<text transform="matrix(2 0 0 2 430.6841 -602.9824)" class="st3 st11">22.31s</text>
				</a>
			</g>
		</g>
		<g id="node7">
			<g id="a_node7">
				<a>
					<polygon class="st16" points="724.5,-346.8 578,-346.8 578,-260.8 724.5,-260.8 					"/>
					<text transform="matrix(2 0 0 2 624.8511 -326.6318)" class="st3 st17">runtime</text>
					<text transform="matrix(2 0 0 2 585.6754 -307.1318)" class="st3 st17">mapaccess2_fast64</text>
					<text transform="matrix(2 0 0 2 599.4254 -287.6318)" class="st3 st17">3.24s (11.13%)</text>
					<text transform="matrix(2 0 0 2 590.2203 -268.1318)" class="st3 st17">of 3.38s (11.61%)</text>
				</a>
			</g>
		</g>
		<g id="edge10">
			<g id="a_edge10">
				<a>
					<path class="st18" d="M455.3-665.2c55.5,9.2,129.2,31,169,83.4c6.7,8.8,17.5,145.5,23.2,223.5"/>
					<polygon class="st19" points="651,-359 648.2,-348.7 644,-358.4 					"/>
				</a>
			</g>
			<g id="a_edge10-label">
				<a>
					<text transform="matrix(2 0 0 2 638.815 -488.4824)" class="st3 st11">2.92s</text>
				</a>
			</g>
		</g>
		<g id="node10">
			<g id="a_node10">
				<a>
					<polygon class="st20" points="1012.5,-337.8 908,-337.8 908,-269.8 1012.5,-269.8 					"/>
					<text transform="matrix(2 0 0 2 940.0728 -321.4326)" class="st3 st21">runtime</text>
					<text transform="matrix(2 0 0 2 929.2447 -306.4326)" class="st3 st21">mapiternext</text>
					<text transform="matrix(2 0 0 2 923.6392 -291.4326)" class="st3 st21">1.05s (3.61%)</text>
					<text transform="matrix(2 0 0 2 916.6002 -276.4326)" class="st3 st21">of 1.25s (4.29%)</text>
				</a>
			</g>
		</g>
		<g id="edge13">
			<g id="a_edge13">
				<a>
					<path class="st22" d="M455.2-664.2c121.3,12.9,355.2,38.9,371.1,48c72.6,41.5,83.4,71.5,115,149
						c15.4,37.8,19.5,84.3,20.1,117.9"/>
					<polygon class="st23" points="964.9,-349.7 961.5,-339.6 957.9,-349.6 					"/>
				</a>
			</g>
			<g id="a_edge13-label">
				<a>
					<text transform="matrix(2 0 0 2 934.815 -488.4824)" class="st3 st11">0.74s</text>
				</a>
			</g>
		</g>
		<g id="node11">
			<g id="a_node11">
				<a>
					<polygon class="st24" points="838.3,-467.3 726.3,-467.3 726.3,-399.3 838.3,-399.3 					"/>
					<text transform="matrix(2 0 0 2 762.0728 -450.9326)" class="st3 st21">runtime</text>
					<text transform="matrix(2 0 0 2 735.7134 -435.9326)" class="st3 st21">mapassign_fast64</text>
					<text transform="matrix(2 0 0 2 745.6392 -420.9326)" class="st3 st21">0.86s (2.95%)</text>
					<text transform="matrix(2 0 0 2 738.6002 -405.9326)" class="st3 st21">of 1.30s (4.47%)</text>
				</a>
			</g>
		</g>
		<g id="edge12">
			<g id="a_edge12">
				<a>
					<path class="st25" d="M455.3-664.8c70.5,8.1,171.6,23.7,202,48.5c36.1,29.5,4.7,67.3,41,96.5c34.2,27.4,69-15.7,97,18
						c5.4,6.5,6.8,14.6,6,22.8"/>
					<polygon class="st26" points="804.8,-478.3 799.4,-469.2 797.9,-479.6 					"/>
				</a>
			</g>
			<g id="a_edge12-label">
				<a>
					<text transform="matrix(2 0 0 2 699.815 -545.7324)" class="st3 st11">1.15s</text>
				</a>
			</g>
		</g>
		<g id="node14">
			<g id="a_node14">
				<a>
					<polygon class="st27" points="1078,-581.8 988.5,-581.8 988.5,-519.8 1078,-519.8 					"/>
					<text transform="matrix(2 0 0 2 1016.1822 -567.332)" class="st3 st13">runtime</text>
					<text transform="matrix(2 0 0 2 1009.1568 -553.832)" class="st3 st13">mapiterinit</text>
					<text transform="matrix(2 0 0 2 1002.2798 -540.332)" class="st3 st13">0.19s (0.65%)</text>
					<text transform="matrix(2 0 0 2 996.3228 -526.832)" class="st3 st13">of 0.70s (2.40%)</text>
				</a>
			</g>
		</g>
		<g id="edge14">
			<g id="a_edge14">
				<a>
					<path class="st28" d="M455.5-663.3c70.3,8.1,180.3,20.3,275.8,29c53.9,4.9,194.3-5.7,243,18c12.1,5.9,23,15.5,31.9,25.5"/>
					<polygon class="st29" points="1008.9,-593.1 1012.6,-583.2 1003.5,-588.6 					"/>
				</a>
			</g>
			<g id="a_edge14-label">
				<a>
					<text transform="matrix(2 0 0 2 998.815 -602.9824)" class="st3 st11">0.70s</text>
				</a>
			</g>
		</g>
		<g id="node15">
			<g id="a_node15">
				<a>
					<polygon class="st30" points="615.2,-575 529.4,-575 529.4,-526.5 615.2,-526.5 					"/>
					<text transform="matrix(2 0 0 2 564.0386 -560.582)" class="st3 st13">pkg</text>
					<text transform="matrix(2 0 0 2 537.4703 -547.082)" class="st3 st13">removeElement</text>
					<text transform="matrix(2 0 0 2 541.2789 -533.582)" class="st3 st13">0.35s (1.20%)</text>
				</a>
			</g>
		</g>
		<g id="edge22">
			<g id="a_edge22">
				<a>
					<path class="st31" d="M444.9-634.1c9.5,5.9,19.2,12,28.4,17.8c17.7,11.2,37,23.7,53.8,34.7"/>
					<polygon class="st32" points="529,-584.5 535.4,-576.1 525.1,-578.7 					"/>
				</a>
			</g>
			<g id="a_edge22-label">
				<a>
					<text transform="matrix(2 0 0 2 499.815 -602.9824)" class="st3 st11">0.35s</text>
				</a>
			</g>
		</g>
		<g id="node5">
			<g id="a_node5">
				<a>
					<polygon class="st33" points="353.2,-23.3 201.4,-23.3 201.4,61.2 353.2,61.2 					"/>
					<text transform="matrix(2 0 0 2 243.0748 1.6182)" class="st3 st34">runtime</text>
					<text transform="matrix(2 0 0 2 224.1314 27.1182)" class="st3 st34">memhash64</text>
					<text transform="matrix(2 0 0 2 209.7681 52.6182)" class="st3 st34">7.79s (26.76%)</text>
				</a>
			</g>
		</g>
		<g id="edge9">
			<g id="a_edge9">
				<a>
					<path class="st35" d="M277.3-75.4c0,12.8,0,26.4,0,39.1"/>
					<polygon class="st36" points="280.8,-36.4 277.3,-26.4 273.8,-36.4 					"/>
				</a>
			</g>
			<g id="a_edge9-label">
				<a>
					<text transform="matrix(2 0 0 2 278.815 -44.4814)" class="st3 st11">7.34s</text>
				</a>
			</g>
		</g>
		<g id="node12">
			<g id="a_node12">
				<a>
					<polygon class="st37" points="183.7,-6.4 100.9,-6.4 100.9,44.3 183.7,44.3 					"/>
					<text transform="matrix(2 0 0 2 123.6265 8.9873)" class="st3 st38">runtime</text>
					<text transform="matrix(2 0 0 2 133.6255 23.2373)" class="st3 st38">add</text>
					<text transform="matrix(2 0 0 2 108.4595 37.4873)" class="st3 st38">0.60s (2.06%)</text>
				</a>
			</g>
		</g>
		<g id="edge15">
			<g id="a_edge15">
				<a>
					<path class="st39" d="M225.9-75.4c-18.3,20.5-38.3,42.8-54.1,60.5"/>
					<polygon class="st40" points="174.6,-12.9 165.3,-7.8 169.4,-17.5 					"/>
				</a>
			</g>
			<g id="a_edge15-label">
				<a>
					<text transform="matrix(2 0 0 2 211.815 -44.4814)" class="st3 st11">0.55s</text>
				</a>
			</g>
		</g>
		<g id="node3">
			<g id="a_node3">
				<a>
					<polygon class="st41" points="514.2,-458.3 428.4,-458.3 428.4,-408.3 514.2,-408.3 					"/>
					<text transform="matrix(2 0 0 2 464.5386 -445.7324)" class="st3 st42">pkg</text>
					<text transform="matrix(2 0 0 2 446.2945 -435.2324)" class="st3 st42">unitPropagate</text>
					<text transform="matrix(2 0 0 2 445.9166 -424.7324)" class="st3 st42">0.04s (0.14%)</text>
					<text transform="matrix(2 0 0 2 436.5435 -414.2324)" class="st3 st42">of 28.59s (98.21%)</text>
				</a>
			</g>
		</g>
		<g id="edge18">
			<g id="a_edge18">
				<a>
					<path class="st43" d="M486.3-408c4.3,8.2,8.6,17.6,11,26.7c7.4,27.4,8.3,109.2,2,120.5c-23.8,42.2-67.6,71.3-110.2,90.9"/>
					<polygon class="st44" points="390.6,-166.8 380,-165.9 387.7,-173.2 					"/>
				</a>
			</g>
			<g id="a_edge18-label">
				<a>
					<text transform="matrix(2 0 0 2 505.815 -298.7324)" class="st3 st11">0.45s</text>
				</a>
			</g>
		</g>
		<g id="edge17">
			<g id="a_edge17">
				<a>
					<path class="st43" d="M505.6-408c21.7,15.4,50.6,35.8,76.9,54.5"/>
					<polygon class="st44" points="584.2,-356.6 590.4,-347.9 580.2,-350.9 					"/>
				</a>
			</g>
			<g id="a_edge17-label">
				<a>
					<text transform="matrix(2 0 0 2 562.815 -367.9824)" class="st3 st11">0.46s</text>
				</a>
			</g>
		</g>
		<g id="node8">
			<g id="a_node8">
				<a>
					<polygon class="st5" points="490.8,-334.8 363.8,-334.8 363.8,-272.8 490.8,-272.8 					"/>
					<text transform="matrix(2 0 0 2 419.0386 -320.332)" class="st3 st13">pkg</text>
					<text transform="matrix(2 0 0 2 372.1382 -306.832)" class="st3 st13">moveAllWatchedLiterals</text>
					<text transform="matrix(2 0 0 2 403.1539 -293.332)" class="st3 st13">0.29s (1%)</text>
					<text transform="matrix(2 0 0 2 384.8228 -279.832)" class="st3 st13">of 28.53s (98.01%)</text>
				</a>
			</g>
		</g>
		<g id="edge3">
			<g id="a_edge3">
				<a>
					<path class="st45" d="M462.9-408c-5.6,16.3-13.2,38.4-20,57.9"/>
					<polygon class="st46" points="447.1,-348.7 439.7,-340.7 438.8,-351.6 					"/>
				</a>
			</g>
			<g id="a_edge3-label">
				<a>
					<text transform="matrix(2 0 0 2 454.6841 -367.9824)" class="st3 st11">28.53s</text>
				</a>
			</g>
		</g>
		<g id="node4">
			<g id="a_node4">
				<a>
					<polygon class="st41" points="824,-852.2 740.5,-852.2 740.5,-814.9 824,-814.9 					"/>
					<text transform="matrix(2 0 0 2 769.8463 -840.5518)" class="st3 st47">runtime</text>
					<text transform="matrix(2 0 0 2 774.2916 -830.8018)" class="st3 st47">main</text>
					<text transform="matrix(2 0 0 2 748.4048 -821.0518)" class="st3 st47">0 of 28.57s (98.14%)</text>
				</a>
			</g>
		</g>
		<g id="node17">
			<g id="a_node17">
				<a>
					<polygon class="st41" points="824,-691.4 740.5,-691.4 740.5,-654.2 824,-654.2 					"/>
					<text transform="matrix(2 0 0 2 774.2916 -679.8018)" class="st3 st47">main</text>
					<text transform="matrix(2 0 0 2 774.2916 -670.0518)" class="st3 st47">main</text>
					<text transform="matrix(2 0 0 2 748.4048 -660.3018)" class="st3 st47">0 of 28.58s (98.18%)</text>
				</a>
			</g>
		</g>
		<g id="edge2">
			<g id="a_edge2">
				<a>
					<path class="st48" d="M782.3-814.6c0,25.8,0,74.1,0,106.8"/>
					<polygon class="st49" points="786.7,-708.1 782.3,-698.1 777.9,-708.1 					"/>
				</a>
			</g>
			<g id="a_edge2-label">
				<a>
					<text transform="matrix(2 0 0 2 783.6841 -732.4824)" class="st3 st11">28.57s</text>
				</a>
			</g>
		</g>
		<g id="edge11">
			<g id="a_edge11">
				<a>
					<path class="st50" d="M443.6-519.5c-22.4,39.1-61.5,109.7-89.3,172.7c-20.9,47.3-40.8,102.2-55,144.2"/>
					<polygon class="st51" points="302.6,-201.6 296.1,-193.3 296,-203.9 					"/>
				</a>
			</g>
			<g id="a_edge11-label">
				<a>
					<text transform="matrix(2 0 0 2 371.815 -367.9824)" class="st3 st11">2.21s</text>
				</a>
			</g>
		</g>
		<g id="edge7">
			<g id="a_edge7">
				<a>
					<path class="st52" d="M463.9-519.4c1.2,13.8,2.6,30.3,3.9,45.1"/>
					<polygon class="st53" points="471.3,-474.9 468.7,-464.6 464.3,-474.3 					"/>
				</a>
			</g>
			<g id="a_edge7-label">
				<a>
					<text transform="matrix(2 0 0 2 468.6841 -488.4824)" class="st3 st11">21.77s</text>
				</a>
			</g>
		</g>
		<g id="edge28">
			<g id="a_edge28">
				<a>
					<path class="st54" d="M511.6-522.6c2.9,1.1,5.8,2,8.7,2.8c47.2,13.4,178.1-7.5,220,18c9.5,5.8,17.2,14.7,23.3,24.1"/>
					<polygon class="st55" points="766.6,-479.5 768.6,-469.1 760.5,-475.9 					"/>
				</a>
			</g>
			<g id="a_edge28-label">
				<a>
					<text transform="matrix(2 0 0 2 759.815 -488.4824)" class="st3 st11">0.05s</text>
				</a>
			</g>
		</g>
		<g id="edge29">
			<g id="a_edge29">
				<a>
					<path class="st54" d="M616.1-260.4C560.1-197,443.8-80.5,314.3-41.3c-52.5,15.9-71.9-4.3-122,18c-5.7,2.5-11.2,5.8-16.4,9.5"/>
					<polygon class="st55" points="178.2,-11.1 168.1,-7.7 173.9,-16.6 					"/>
				</a>
			</g>
			<g id="a_edge29-label">
				<a>
					<text transform="matrix(2 0 0 2 548.815 -128.7314)" class="st3 st11">0.05s</text>
				</a>
			</g>
		</g>
		<g id="node13">
			<g id="a_node13">
				<a>
					<polygon class="st56" points="760,-164.8 682.5,-164.8 682.5,-102.8 760,-102.8 					"/>
					<text transform="matrix(2 0 0 2 704.1822 -150.332)" class="st3 st13">runtime</text>
					<text transform="matrix(2 0 0 2 702.6568 -136.832)" class="st3 st13">(*bmap)</text>
					<text transform="matrix(2 0 0 2 701.4341 -123.333)" class="st3 st13">overflow</text>
					<text transform="matrix(2 0 0 2 690.2789 -109.833)" class="st3 st13">0.27s (0.93%)</text>
				</a>
			</g>
		</g>
		<g id="edge27">
			<g id="a_edge27">
				<a>
					<path class="st54" d="M668-260.6c6.4,16,13.8,34.2,20.8,50.8c4.7,11.2,9.9,23.3,14.7,34.5"/>
					<polygon class="st55" points="706.6,-177 707.4,-166.4 700.2,-174.2 					"/>
				</a>
			</g>
			<g id="a_edge27-label">
				<a>
					<text transform="matrix(2 0 0 2 696.0543 -229.4824)" class="st3 st11">0.07s</text>
					<text transform="matrix(2 0 0 2 690.4254 -212.9824)" class="st3 st11">(inline)</text>
				</a>
			</g>
		</g>
		<g id="edge4">
			<g id="a_edge4">
				<a>
					<path class="st45" d="M423.6-335.1c-7.5-62.2-24.6-205-33.9-283.1"/>
					<polygon class="st46" points="385.4,-617.2 388.6,-627.7 394.1,-618.3 					"/>
				</a>
			</g>
			<g id="a_edge4-label">
				<a>
					<text transform="matrix(2 0 0 2 406.6841 -488.4824)" class="st3 st11">28.35s</text>
				</a>
			</g>
		</g>
		<g id="edge16">
			<g id="a_edge16">
				<a>
					<path class="st57" d="M402.8-272.6c-15.1,18.4-35.1,42.3-53.5,62.8c-2.8,3.1-5.6,6.2-8.5,9.3"/>
					<polygon class="st58" points="343.5,-198.2 334.1,-193.3 338.4,-203 					"/>
				</a>
			</g>
			<g id="a_edge16-label">
				<a>
					<text transform="matrix(2 0 0 2 379.815 -221.2324)" class="st3 st11">0.48s</text>
				</a>
			</g>
		</g>
		<g id="node9">
			<g id="a_node9">
				<a>
					<polygon class="st41" points="824,-569.4 740.5,-569.4 740.5,-532.2 824,-532.2 					"/>
					<text transform="matrix(2 0 0 2 776.2877 -557.8018)" class="st3 st47">pkg</text>
					<text transform="matrix(2 0 0 2 772.2877 -548.0518)" class="st3 st47">DPLL</text>
					<text transform="matrix(2 0 0 2 748.4048 -538.3018)" class="st3 st47">0 of 28.60s (98.25%)</text>
				</a>
			</g>
		</g>
		<g id="edge5">
			<g id="a_edge5">
				<a>
					<path class="st45" d="M750.1-531.7c-15.2,8.7-33.5,19.6-49.5,29.9c-10.6,6.9-11.7,11.2-23.2,16.5
						c-47.2,21.6-104.8,34.9-147.1,42.5"/>
					<polygon class="st46" points="531,-438.5 520.4,-441.2 529.5,-447.2 					"/>
				</a>
			</g>
			<g id="a_edge5-label">
				<a>
					<text transform="matrix(2 0 0 2 702.6841 -488.4824)" class="st3 st11">28.09s</text>
				</a>
			</g>
		</g>
		<g id="edge25">
			<g id="a_edge25">
				<a>
					<path class="st59" d="M803.7-531.7c11.9,12.4,23.3,29.5,17.6,46.4c-0.9,2.6-1.9,5.1-3.2,7.7"/>
					<polygon class="st60" points="821.2,-475.9 813.2,-468.9 815.1,-479.4 					"/>
				</a>
			</g>
			<g id="a_edge25-label">
				<a>
					<text transform="matrix(2 0 0 2 823.815 -488.4824)" class="st3 st11">0.10s</text>
				</a>
			</g>
		</g>
		<g id="node16">
			<g id="a_node16">
				<a>
					<polygon class="st30" points="932.7,-458.3 855.9,-458.3 855.9,-408.3 932.7,-408.3 					"/>
					<text transform="matrix(2 0 0 2 887.5377 -445.7324)" class="st3 st42">pkg</text>
					<text transform="matrix(2 0 0 2 870.2857 -435.2324)" class="st3 st42">SplittingRule</text>
					<text transform="matrix(2 0 0 2 871.1666 -424.7324)" class="st3 st42">0.03s (0.1%)</text>
					<text transform="matrix(2 0 0 2 864.0435 -414.2324)" class="st3 st42">of 0.36s (1.24%)</text>
				</a>
			</g>
		</g>
		<g id="edge21">
			<g id="a_edge21">
				<a>
					<path class="st31" d="M819.7-531.8c13.6,7.8,28.4,18,39.6,30.1c8.7,9.4,15.8,21.4,21.3,32.6"/>
					<polygon class="st32" points="883.8,-470.7 884.8,-460.1 877.4,-467.7 					"/>
				</a>
			</g>
			<g id="a_edge21-label">
				<a>
					<text transform="matrix(2 0 0 2 871.815 -488.4824)" class="st3 st11">0.36s</text>
				</a>
			</g>
		</g>
		<g id="edge24">
			<g id="a_edge24">
				<a>
					<path class="st61" d="M907.6-290c-56.8,14.2-140.7,36.5-151.8,47.3c-17.9,17.5-26.5,44.1-30.7,66.6"/>
					<polygon class="st62" points="728.6,-175.7 723.6,-166.4 721.7,-176.8 					"/>
				</a>
			</g>
			<g id="a_edge24-label">
				<a>
					<text transform="matrix(2 0 0 2 763.0533 -229.4824)" class="st3 st11">0.18s</text>
					<text transform="matrix(2 0 0 2 757.4244 -212.9824)" class="st3 st11">(inline)</text>
				</a>
			</g>
		</g>
		<g id="edge20">
			<g id="a_edge20">
				<a>
					<path class="st63" d="M794.1-398.8c22.8,71.1,63.2,237.7-24.9,323C712.8-21.1,490.6,3.1,365,12.6"/>
					<polygon class="st64" points="365.2,16.1 355,13.3 364.7,9.1 					"/>
				</a>
			</g>
			<g id="a_edge20-label">
				<a>
					<text transform="matrix(2 0 0 2 824.815 -221.2324)" class="st3 st11">0.43s</text>
				</a>
			</g>
		</g>
		<g id="edge19">
			<g id="a_edge19">
				<a>
					<path class="st63" d="M1024.3-519.7c-12.7,42.7-36.1,121.1-50.8,170.6"/>
					<polygon class="st64" points="976.9,-348.2 970.7,-339.7 970.2,-350.2 					"/>
				</a>
			</g>
			<g id="a_edge19-label">
				<a>
					<text transform="matrix(2 0 0 2 1008.815 -428.2324)" class="st3 st11">0.44s</text>
				</a>
			</g>
		</g>
		<g id="edge23">
			<g id="a_edge23">
				<a>
					<path class="st65" d="M878.8-407.9c-25.5,37.9-80,110.4-145.5,147.1c-24.5,13.7-219.5,45.5-247,51c-41.3,8.3-53.1,4.6-93,18
						c-1.4,0.5-2.8,0.9-4.1,1.4"/>
					<polygon class="st66" points="390.5,-187.1 379.9,-186.9 388.1,-193.7 					"/>
				</a>
			</g>
			<g id="a_edge23-label">
				<a>
					<text transform="matrix(2 0 0 2 832.815 -298.7324)" class="st3 st11">0.26s</text>
				</a>
			</g>
		</g>
		<g id="edge26">
			<g id="a_edge26">
				<a>
					<path class="st54" d="M898.7-408c3,13.2,7.7,29.7,14.6,43.2c3,5.9,6.6,11.8,10.5,17.4"/>
					<polygon class="st55" points="926.5,-349.5 929.6,-339.3 920.9,-345.4 					"/>
				</a>
			</g>
			<g id="a_edge26-label">
				<a>
					<text transform="matrix(2 0 0 2 914.815 -367.9824)" class="st3 st11">0.07s</text>
				</a>
			</g>
		</g>
		<g id="edge1">
			<g id="a_edge1">
				<a>
					<path class="st48" d="M782.3-653.8c0,17.9,0,45.7,0,67.8"/>
					<polygon class="st49" points="786.7,-586.1 782.3,-576.1 777.9,-586.1 					"/>
				</a>
			</g>
			<g id="a_edge1-label">
				<a>
					<text transform="matrix(2 0 0 2 783.6841 -602.9824)" class="st3 st11">28.58s</text>
				</a>
			</g>
		</g>
	</g>
</g>
<rect x="456.2" y="360.7" class="st67" width="53.3" height="5"/>
</svg>
